HIERARCHY
ROOT RootJoint
{
    OFFSET   0.000000   0.000000   0.000000
    CHANNELS 6 Xposition Yposition Zposition Xrotation Yrotation Zrotation
    JOINT pelvis_lowerback
    {
        OFFSET   0.000000   0.093605   0.000000
        CHANNELS 3 Xrotation Yrotation Zrotation
        JOINT lowerback_torso
        {
            OFFSET   0.000000   0.100000   0.000000
            CHANNELS 3 Xrotation Yrotation Zrotation
            JOINT torso_head
            {
                OFFSET   0.000000   0.282350   0.000000
                CHANNELS 3 Xrotation Yrotation Zrotation
                End Site
                {
                    OFFSET   0.000000   0.192650   0.000000
                }
            }
            JOINT rTorso_Clavicle
            {
                OFFSET  -0.001000   0.157500   0.000000
                CHANNELS 3 Xrotation Yrotation Zrotation
                JOINT rShoulder
                {
                    OFFSET  -0.117647   0.000000   0.000000
                    CHANNELS 3 Xrotation Yrotation Zrotation
                    JOINT rElbow
                    {
                        OFFSET  -0.245000   0.000000   0.000000
                        CHANNELS 3 Xrotation Yrotation Zrotation
                        JOINT rWrist
                        {
                            OFFSET  -0.240000   0.000000   0.000000
                            CHANNELS 3 Xrotation Yrotation Zrotation
                            End Site
                            {
                                OFFSET  -0.116353  -0.002500   0.000000
                            }
                        }
                    }
                }
            }
            JOINT lTorso_Clavicle
            {
                OFFSET   0.001000   0.157500   0.000000
                CHANNELS 3 Xrotation Yrotation Zrotation
                JOINT lShoulder
                {
                    OFFSET   0.117647   0.000000   0.000000
                    CHANNELS 3 Xrotation Yrotation Zrotation
                    JOINT lElbow
                    {
                        OFFSET   0.245000   0.000000   0.000000
                        CHANNELS 3 Xrotation Yrotation Zrotation
                        JOINT lWrist
                        {
                            OFFSET   0.240000   0.000000   0.000000
                            CHANNELS 3 Xrotation Yrotation Zrotation
                            End Site
                            {
                                OFFSET   0.116353  -0.002500   0.000000
                            }
                        }
                    }
                }
            }
        }
    }
    JOINT rHip
    {
        OFFSET  -0.100000  -0.051395   0.000000
        CHANNELS 3 Xrotation Yrotation Zrotation
        JOINT rKnee
        {
            OFFSET   0.000000  -0.410000   0.000000
            CHANNELS 3 Xrotation Yrotation Zrotation
            JOINT rAnkle
            {
                OFFSET   0.000000  -0.390000   0.000000
                CHANNELS 3 Xrotation Yrotation Zrotation
                JOINT rToeJoint
                {
                    OFFSET   0.000000  -0.050000   0.130000
                    CHANNELS 3 Xrotation Yrotation Zrotation
                    End Site
                    {
                        OFFSET  -0.010000   0.002000   0.060000
                    }
                }
            }
        }
    }
    JOINT lHip
    {
        OFFSET   0.100000  -0.051395   0.000000
        CHANNELS 3 Xrotation Yrotation Zrotation
        JOINT lKnee
        {
            OFFSET   0.000000  -0.410000   0.000000
            CHANNELS 3 Xrotation Yrotation Zrotation
            JOINT lAnkle
            {
                OFFSET   0.000000  -0.390000   0.000000
                CHANNELS 3 Xrotation Yrotation Zrotation
                JOINT lToeJoint
                {
                    OFFSET   0.000000  -0.050000   0.130000
                    CHANNELS 3 Xrotation Yrotation Zrotation
                    End Site
                    {
                        OFFSET   0.010000   0.002000   0.060000
                    }
                }
            }
        }
    }
}
MOTION
Frames: 11
Frame Time:   0.008333
 -1.957386   0.924747   6.780114 172.769671  12.780264 173.967519   7.632591   9.610418  -2.581978   6.227589   4.310990  -1.579019  -2.540067   0.526478  -3.335769  -0.970787  -1.593987  -5.595659  -5.691934   4.702859  38.018180   0.012187  85.836970  -0.020227  -1.697326   5.587723  -7.369472  10.538860   6.634448   0.857200  25.601891   1.307756 -53.237559  -0.001284 -47.584806   0.002409  -2.065609  -4.401448   2.927012   4.384693  -4.668914  -8.579296  20.133337  -0.011301  -0.009714  38.536036  -0.891311   9.262348 -29.400550   0.056312   0.028720 -41.669666  11.389024  10.122505  43.479868  -0.017202  -0.086918 -12.623249  13.211873   3.301551  -4.395723   0.001905   0.003849
 -1.957521   0.925474   6.764705 172.751472  11.975759 173.772560   7.526557   9.466622  -2.654545   6.376331   4.240000  -1.661399  -2.545751   0.386451  -3.228640  -0.772255  -1.647471  -5.571523  -5.037209   4.450769  38.387412  -0.048515  85.184276   0.042469  -1.624952   6.253228  -7.566923  10.501433   6.615724   0.893441  25.347516   1.456515 -53.115612  -0.001473 -47.391541   0.002647  -2.132836  -4.311645   2.999428   4.074828  -4.603187  -8.567651  22.902662   0.002288   0.008416  37.402445  -1.163595   9.193142 -26.751593   0.066107   0.025751 -41.294920  11.459675  10.005213  41.401018  -0.015802  -0.084016 -12.491024  13.496453   3.270118  -4.256626   0.002029   0.004542
 -1.957672   0.925486   6.749091 172.801106  10.976068 173.496016   7.431573   9.228726  -2.640836   6.567024   4.094222  -1.643776  -2.542146   0.259480  -3.115899  -0.495296  -1.746543  -5.441432  -4.332404   4.168053  38.781922  -0.088623  84.487217   0.083084  -1.607565   6.478126  -7.590205  10.412305   6.546932   0.891031  25.054897   1.560304 -52.994325  -0.001492 -47.220235   0.002805  -2.198634  -4.245854   3.106338   3.847064  -4.570070  -8.459965  25.904294   0.016921   0.026652  36.345356  -1.419385   9.122913 -24.477270   0.073127   0.023816 -40.845437  11.518914   9.857393  39.486542  -0.015707  -0.083285 -12.366190  13.761455   3.240181  -4.124808   0.002095   0.005185
 -1.957918   0.924777   6.733344 172.848279   9.919111 173.197953   7.318033   8.956652  -2.584778   6.744880   3.904988  -1.571721  -2.538773   0.142156  -3.008240  -0.185175  -1.877017  -5.245916  -3.621399   3.883712  39.193570  -0.108329  83.811125   0.102525  -1.619436   6.496787  -7.492639  10.304589   6.458622   0.873097  24.757225   1.637561 -52.883236  -0.001402 -47.070473   0.002869  -2.259397  -4.235726   3.208827   3.665950  -4.544998  -8.329468  28.797298   0.030583   0.040237  35.365749  -1.655337   9.053023 -22.379900   0.078315   0.021761 -40.386485  11.593477   9.699624  37.715203  -0.015665  -0.082609 -12.248709  14.009120   3.210679  -4.004452   0.002082   0.005611
 -1.958290   0.923351   6.717532 172.881052   8.871204 172.895781   7.191219   8.672932  -2.501114   6.899435   3.696666  -1.469271  -2.538792   0.033269  -2.906861   0.132818  -2.020156  -5.019053  -2.927771   3.609710  39.605525  -0.114865  83.168487   0.108561  -1.643929   6.426139  -7.334395  10.189448   6.361758   0.846928  24.464922   1.697392 -52.782283  -0.001252 -46.937823   0.002851  -2.315711  -4.268493   3.301368   3.500793  -4.519751  -8.207946  31.522186   0.042273   0.048418  34.452793  -1.873602   8.984019 -20.455130   0.081306   0.018943 -39.930309  11.673835   9.545063  36.074200  -0.015202  -0.081006 -12.138261  14.240596   3.181906  -3.894574   0.002001   0.005803
 -1.958788   0.921213   6.701698 172.899103   7.858777 172.594673   7.057429   8.386434  -2.397833   7.032093   3.480985  -1.347965  -2.541724  -0.068107  -2.810947   0.445533  -2.165842  -4.781553  -2.263094   3.350895  40.006948  -0.113569  82.562759   0.106800  -1.673456   6.316193  -7.149915  10.071980   6.261039   0.817428  24.182213   1.744963 -52.689317  -0.001074 -46.819103   0.002770  -2.368164  -4.330389   3.386366   3.338795  -4.491629  -8.106808  34.071443   0.051573   0.052002  33.600517  -2.075780   8.916312 -18.692464   0.082184   0.015483 -39.480570  11.753315   9.400623  34.553218  -0.014319  -0.078348 -12.034492  14.456875   3.154109  -3.794096   0.001872   0.005800
 -1.959401   0.918369   6.685869 172.903852   6.890477 172.296092   6.921232   8.101012  -2.280500   7.146227   3.263372  -1.214166  -2.546614  -0.162690  -2.719768   0.746615  -2.309352  -4.544864  -1.632247   3.108656  40.392052  -0.107894  81.994251   0.100806  -1.704509   6.189957  -6.957421   9.954882   6.158861   0.788345  23.910931   1.783628 -52.601985  -0.000889 -46.712087   0.002643  -2.417156  -4.411977   3.467601   3.175316  -4.459826  -8.028627  36.450209   0.058439   0.052165  32.804420  -2.263158   8.850215 -17.079381   0.081253   0.011726 -39.039735  11.829025   9.269254  33.142931  -0.013157  -0.074830 -11.937044  14.658915   3.127418  -3.702076   0.001714   0.005652
 -1.960290   0.914678   6.670452 173.058940   5.805427 172.171529   7.129835   7.727901  -2.302835   7.159270   3.078771  -1.170915  -2.604556  -0.259314  -2.539072   0.989968  -2.307396  -4.269520  -0.837137   2.986228  40.761448  -0.153873  80.385809   0.143925  -1.563402   6.706017  -7.031666   9.771598   5.867196   0.710836  23.431701   1.726270 -52.266068  -0.000416 -46.426727   0.003073  -2.414714  -4.346100   3.482138   2.696650  -4.601069  -8.214200  40.115662   0.072473   0.052282  30.845643  -2.817676   8.763483 -15.755752   0.077981   0.003676 -38.646968  11.636395   8.836692  33.031879  -0.010626  -0.060530 -12.398648  14.434418   3.463022  -3.545427   0.001176   0.005187
 -1.961224   0.910302   6.655032 173.253754   4.656588 172.079551   7.363660   7.329250  -2.330518   7.202720   2.858662  -1.116848  -2.661846  -0.346806  -2.375297   1.261306  -2.273949  -3.934416  -0.053398   2.867134  41.135223  -0.179172  78.789172   0.166285  -1.482247   6.722682  -6.985702   9.527879   5.502968   0.637336  22.910211   1.628658 -51.904907   0.000076 -46.168634   0.003320  -2.407164  -4.276620   3.557297   2.194268  -4.731031  -8.404487  43.945875   0.085973   0.052768  29.019495  -3.336514   8.663746 -14.578959   0.074301  -0.001729 -38.181280  11.459192   8.326815  33.179776  -0.008258  -0.047514 -12.825559  14.219382   3.775964  -3.452564   0.000800   0.004566
 -1.962179   0.905235   6.639589 173.445214   3.492930 171.987717   7.578254   6.918467  -2.337845   7.244224   2.612736  -1.041559  -2.714134  -0.427551  -2.224731   1.538802  -2.240202  -3.575722   0.701564   2.760238  41.512018  -0.186402  77.281004   0.171081  -1.425548   6.571118  -6.846512   9.261506   5.117880   0.568526  22.385073   1.509258 -51.554606   0.000500 -45.942333   0.003432  -2.395008  -4.277120   3.657742   1.666341  -4.842518  -8.564450  47.791446   0.097598   0.052233  27.315429  -3.816705   8.554871 -13.495923   0.070528  -0.005382 -37.659333  11.310045   7.805094  33.391199  -0.006169  -0.036662 -13.219785  14.017376   4.066211  -3.368082   0.000508   0.004062
 -1.963153   0.899464   6.624123 173.622748   2.337484 171.889572   7.765996   6.503167  -2.322847   7.273823   2.351508  -0.947895  -2.763410  -0.502820  -2.083838   1.812036  -2.212255  -3.214102   1.420708   2.663772  41.881678  -0.182464  75.868013   0.165473  -1.377199   6.375177  -6.659337   8.989667   4.731965   0.503809  21.872558   1.379168 -51.222232   0.000844 -45.741623   0.003454  -2.379395  -4.337504   3.766469   1.119708  -4.939365  -8.696077  51.597173   0.106993   0.050129  25.723461  -4.260537   8.439749 -12.504182   0.066581  -0.007843 -37.096502  11.181405   7.293275  33.623121  -0.004385  -0.027824 -13.585098  13.827578   4.335584  -3.289370   0.000285   0.003649
